<?xml version="1.0" encoding="utf-8"?>
<!-- Generator: Adobe Illustrator 26.3.1, SVG Export Plug-In . SVG Version: 6.00 Build 0)  -->
<svg version="1.1" xmlns="http://www.w3.org/2000/svg" xmlns:xlink="http://www.w3.org/1999/xlink" x="0px" y="0px"
	 viewBox="0 0 163.97 25.84" style="enable-background:new 0 0 163.97 25.84;" xml:space="preserve">
<style type="text/css">
	.st0{fill:#DAECD4;}
	.st1{fill:#3AAE36;}
</style>
<g id="背景层">
	<rect x="-0.2" y="0.02" class="st0" width="164.17" height="25.79"/>
</g>
<g id="侧边柱层_00000083810154933547548470000009584482828619831743_">
	<rect x="-0.2" y="0.02" class="st1" width="6" height="25.79"/>
	<rect x="157.97" y="0.02" class="st1" width="6" height="25.79"/>
</g>
<g id="字层">
	<g>
		<path d="M75.98,15.12v2.9c0,0.33-1.21,1.03-2.51,1.03h-0.46V4.01l3.04,1.23h1.14l1.36-1.5l2.75,2.13
			c-0.15,0.18-0.44,0.37-0.88,0.46v10.34c-0.04,0.2-1.5,0.77-2.51,0.77h-0.51v-2.33H75.98z M75.98,5.86v8.65h1.43V5.86H75.98z
			 M90.67,8.3c0,0,1.74,1.43,2.75,2.4c-0.04,0.24-0.31,0.35-0.62,0.35h-2.2v11.51c-0.02,0.13-0.99,0.7-2.64,0.7h-0.62V11.05h-2.33
			v0.04c0,4.22-0.59,9.2-7.53,11.99l-0.15-0.18c4.03-3.32,4.55-7.5,4.55-11.79V3.86l3.17,1.08c1.72-0.88,3.43-1.89,4.44-2.64
			l3.3,3.01c-0.31,0.24-0.88,0.29-1.65,0c-1.56,0.31-3.87,0.59-6.14,0.77v4.36h4.09L90.67,8.3z"/>
	</g>
</g>
</svg>
