<?xml version="1.0" encoding="utf-8"?>
<!-- Generator: Adobe Illustrator 26.3.1, SVG Export Plug-In . SVG Version: 6.00 Build 0)  -->
<svg version="1.1" id="图层_1" xmlns="http://www.w3.org/2000/svg" xmlns:xlink="http://www.w3.org/1999/xlink" x="0px" y="0px"
	 viewBox="0 0 502 480" style="enable-background:new 0 0 502 480;" xml:space="preserve">
<style type="text/css">
	.st0{fill-rule:evenodd;clip-rule:evenodd;fill:#FFFFFF;}
	.st1{fill:#A22124;}
</style>
<g>
	<g>
		<path class="st0" d="M164.1,171.6c-64.8,1.1-121.9,41.2-134,97.9c-13.9,64.9,36.2,127.2,111.8,139.1c0,0.1,0,0.2,0,0.4h-0.4
			l-58.9,60.8l121-63.1h-1.2l0.8-0.7l1.7-0.1l-1.3,0.7l1.7-0.1v-0.7l0,0c52.4-12.8,89.1-47.5,98.9-93.4
			c13.9-64.9-36.3-127.2-111.9-139.1C182.8,172.1,173.4,171.5,164.1,171.6L164.1,171.6z"/>
		<path class="st1" d="M164.4,191.9C91,194.8,25.9,263.6,63.2,336c16.6,31.4,46.7,52.4,80.1,65.3c9.1,2,7.5,15.6-1.9,15.3
			c0,0,5.4-2.3,5.4-2.3L88,475.1c0,0-8.9-11.9-8.9-11.9l121-63.1c0,0,3.5,14.1,3.5,14.1c0,0-1.2,0-1.2,0c-7,0-10.1-8.9-4.8-13.3
			c1.4-1.3,3.2-2.3,5.1-2.4c0,0,1.7-0.1,1.7-0.1c8.1-0.4,11,10.4,3.9,14.2c0,0-1.3,0.7-1.3,0.7l-3.9-14.2c0,0,1.7-0.1,1.7-0.1
			l-7,7.5c-0.3-3.8,2.1-7.2,5.7-8c7.1-2.1,14.1-4.7,20.7-7.7c45.9-19.9,77.9-67.1,65.9-117.6c-10.6-43.5-52.2-73.2-95.1-79.8
			C185,191.9,174.2,191.6,164.4,191.9L164.4,191.9z M163.8,151.2c12.3,0.2,23.8,1.3,35.6,3.6c22.4,4.7,43.9,13.5,62.7,26.8
			c44.3,30.7,69.4,85,53.8,138.1c-11.4,41.5-45.3,73.3-85.2,87c-7.7,2.7-15.6,4.8-23.5,6.4c0,0,5.7-7.3,5.7-7.3c0,0,0,0.7,0,0.7
			c0,4-3.1,7.2-7,7.5l-1.7,0.1c-4.1,0.3-7.7-2.9-8-7c-0.2-3.8,2.2-6.5,5.4-7.8c0,0,3.9,14.2,3.9,14.2s-1.7,0.1-1.7,0.1
			c0,0,4.3-1.7,4.3-1.7s-0.8,0.7-0.8,0.7c0,0-4.8-13.3-4.8-13.3c8.5-0.8,12.1,10,4.7,14.1c0,0-121,63.1-121,63.1
			c-7.6,3.8-14.7-5.7-8.9-11.9c0,0,58.9-60.8,58.9-60.8c1.6-1.6,3.7-2.4,5.8-2.3c0,0-7.5,7.5-7.5,7.5v-0.4c0,0,6.3,7.4,6.3,7.4
			c-16.9,0.8-34.2-1.9-50.7-7.9C24.9,385-13.4,315.6,9.8,248.7C31.4,185.5,99.9,150.1,163.8,151.2L163.8,151.2z"/>
	</g>
	<g>
		<path class="st0" d="M300.8,27c81.5,1.4,153.3,51.8,168.6,123.2c17.4,81.6-45.6,160-140.6,174.9c0,0.1,0,0.3,0,0.4h0.5l74.1,76.4
			l-152.2-79.3h1.5l-1-0.8l-2.2-0.1l1.7,0.9l-2.1-0.1v-0.8l0,0c-65.9-16.1-112-59.7-124.4-117.5c-17.4-81.6,45.6-160.1,140.8-175
			C277.3,27.6,289.2,26.8,300.8,27L300.8,27z"/>
		<path class="st1" d="M301.2,3.3c79.3-1.1,164.1,43.2,190.5,121.8c11.7,34,10.7,72.8-2.9,105.7c-25,63-92,104.3-158.4,104.3
			c0,0,8.4-9.9,8.4-9.9v0.4c0,0-10-10-10-10s0.5,0,0.5,0c2.8,0,5.4,1.2,7.2,3l74.1,76.4c7.7,8.2-1.6,20.9-11.8,15.8
			c0,0-152.2-79.3-152.2-79.3c-10-5.7-5.1-19.9,6.1-18.9c0,0-6.1,17.9-6.1,17.9s-1-0.8-1-0.8s5.6,2.1,5.6,2.1s-2.2-0.1-2.2-0.1
			s5.1-18.9,5.1-18.9s1.7,0.9,1.7,0.9c9.5,5.1,5.5,19.3-5.2,18.9c0,0-2.1-0.1-2.1-0.1c-5.3-0.3-9.5-4.7-9.5-10c0,0,0-0.8,0-0.8
			c0,0,7.6,9.7,7.6,9.7c-20.1-4.2-39.8-11.1-57.9-21.2c-18.4-10.2-35.2-23.8-48.6-40.1c-60.8-75.1-39.5-175.7,38.1-229.4
			C214.2,15.9,257.7,3.4,301.2,3.3L301.2,3.3z M300.3,50.8c-25.8-1.2-52.1,3-76,13c-77.8,32-112.8,117.7-61.9,189.3
			c21.2,29.7,54.2,49.1,89,59.1c5,1.1,8,5.7,7.6,10.5c0,0-9.5-10-9.5-10s2.1,0.1,2.1,0.1l-5.2,18.9l-1.7-0.9
			c-9.5-5.1-5.5-19.3,5.1-18.9c0,0,2.2,0.1,2.2,0.1c2.6,0.1,4.8,1.3,6.6,2.9c7.5,5.8,3.3,17.9-6.1,17.9c0,0-1.5,0-1.5,0
			s4.6-18.9,4.6-18.9c0,0,152.2,79.3,152.2,79.3S396.2,409,396.2,409l-74.1-76.4c0,0,7.2,3,7.2,3s-0.5,0-0.5,0
			c-12.3-0.3-13.6-17.9-1.8-20.3c49.7-15.8,97.6-51.4,113-102.3c7-22.6,6.2-47.3-1.9-69.5C417.9,87.8,358.6,53.1,300.3,50.8
			L300.3,50.8z"/>
	</g>
</g>
</svg>
