<?xml version="1.0" encoding="utf-8"?>
<!-- Generator: Adobe Illustrator 26.3.1, SVG Export Plug-In . SVG Version: 6.00 Build 0)  -->
<svg version="1.1" id="图层_1" xmlns="http://www.w3.org/2000/svg" xmlns:xlink="http://www.w3.org/1999/xlink" x="0px" y="0px"
	 viewBox="0 0 164 25.8" style="enable-background:new 0 0 164 25.8;" xml:space="preserve">
<style type="text/css">
	.st0{fill:#FCE7E5;}
	.st1{fill:#AD2525;}
</style>
<g id="背景层">
	<rect x="-0.2" y="0" class="st0" width="164.2" height="25.8"/>
</g>
<g id="侧边柱层_00000083810154933547548470000009584482828619831743_">
	<rect x="-0.2" y="0" class="st1" width="6" height="25.8"/>
	<rect x="158" y="0" class="st1" width="6" height="25.8"/>
</g>
<g id="字层">
	<g>
		<path d="M78.7,4.8c0,0,1.9,1.5,3.1,2.5c-0.1,0.2-0.3,0.3-0.6,0.3H70.7c-0.1,1.3-0.2,2.6-0.4,3.8h4.6l1.7-1.6l2.7,2.3
			c-0.2,0.2-0.5,0.4-1,0.4c-0.3,5.8-0.9,8.5-2.2,9.5c-0.9,0.7-1.8,1-3.4,1c0-1-0.1-1.7-0.5-2.1c-0.4-0.5-1.2-0.9-2.3-1.1l0-0.2
			c1,0.1,2.6,0.1,3.1,0.1c0.4,0,0.6-0.1,0.8-0.2c0.7-0.5,1.1-3.1,1.3-7.5h-4.9c-0.9,4.8-3.2,9-9,11.2L61,23
			c5.1-3.9,6.1-9.6,6.2-15.5h-6L61,7h16L78.7,4.8z M68.8,2.2c7.5,0.3,4.9,6.2,1.9,4.1c-0.3-1.5-1.1-3-2-4L68.8,2.2z"/>
		<path d="M103.8,11.3c-0.2,0.2-0.4,0.4-0.9,0.4c-0.2,6.6-0.6,9.3-1.8,10.3c-0.8,0.7-1.7,1-3.2,1c0-1-0.1-1.7-0.5-2.1
			c-0.4-0.4-1.1-0.8-2.1-1v-0.3c0.9,0.1,2.3,0.1,2.8,0.1c0.3,0,0.5-0.1,0.7-0.2c0.6-0.5,0.9-3.3,1.1-8.4h-4c-1.1,1.7-2.4,3.1-3.9,4
			l-0.2-0.2c0.5-0.9,0.9-2,1.3-3.2c-0.1,0.1-0.4,0.2-0.8,0.1c-1.3,1.2-3.8,2.8-6,3.8c1.5,0,3.4-0.1,5.4-0.2l0,0.2
			c-1.2,0.6-3.5,1.7-6.3,2.8c-0.2,0.2-0.3,0.3-0.5,0.4l-1.3-3.1c0,0,0.6-0.1,0.9-0.2c1-0.5,2.3-1.5,3.4-2.6c-0.8,0.3-1.7,0.7-2.8,1
			c-0.1,0.2-0.3,0.3-0.5,0.4l-1.2-2.9c0,0,0.5-0.1,0.7-0.2c1.1-0.6,2.7-2.8,3.1-3.9L88.4,8V5.8h-5l-0.2-0.6h5.2V2.3l3.8,0.3
			c0,0.3-0.2,0.5-0.8,0.6v2h3.8V2.3l3.9,0.3c0,0.3-0.2,0.5-0.8,0.6v2h1.2l1.4-2c0,0,1.7,1.3,2.6,2.3c-0.1,0.2-0.3,0.3-0.6,0.3h-4.7
			v1.7c0,0.2-0.9,0.6-2.1,0.6l1.5,0.4c-0.1,0.3-0.4,0.5-0.9,0.5c-0.2,0.5-0.5,1-0.8,1.5h3.4l1.6-1.5L103.8,11.3z M83.9,19.3
			c1.6-0.1,5.2-0.6,8.4-1.2l0,0.2c-1.4,1.1-3.5,2.5-6.6,4.1c-0.1,0.3-0.4,0.5-0.7,0.6L83.9,19.3z M95.3,7.9v-2h-3.8v1.8
			c0,0.2-1.1,0.6-2.4,0.7L90.3,9c-0.1,0.2-0.3,0.4-0.8,0.3c-1,0.8-2.6,1.7-4,2.3c0.9,0,2.1,0.1,3.3,0.1c0.6-0.7,1.1-1.4,1.4-2
			l2.6,2.1c0.4-1.4,0.8-2.8,0.9-4.3L95.3,7.9z M94.2,13.5c6.1,1.4,3.2,6,0.8,3.8c0-1.3-0.5-2.7-1-3.7L94.2,13.5z"/>
	</g>
</g>
</svg>
