<?xml version="1.0" encoding="utf-8"?>
<!-- Generator: Adobe Illustrator 26.3.1, SVG Export Plug-In . SVG Version: 6.00 Build 0)  -->
<svg version="1.1" xmlns="http://www.w3.org/2000/svg" xmlns:xlink="http://www.w3.org/1999/xlink" x="0px" y="0px"
	 viewBox="0 0 163.97 25.84" style="enable-background:new 0 0 163.97 25.84;" xml:space="preserve">
<style type="text/css">
	.st0{fill:#F6F1C3;}
	.st1{fill:#EFB364;}
</style>
<g id="背景层">
	<rect x="-0.2" y="0.02" class="st0" width="164.17" height="25.79"/>
</g>
<g id="侧边柱层_00000083810154933547548470000009584482828619831743_">
	<rect x="-0.2" y="0.02" class="st1" width="6" height="25.79"/>
	<rect x="157.97" y="0.02" class="st1" width="6" height="25.79"/>
</g>
<g id="字层">
	<g>
		<path d="M76.97,5.46C76.92,5.81,76.72,6.1,76,6.19v16.13c0,0.29-1.23,0.92-2.4,0.92h-0.51V5.09L76.97,5.46z M75.8,2.29
			c6.45,0.13,4.42,5.1,1.78,3.5c-0.29-1.21-1.14-2.55-1.94-3.37L75.8,2.29z M92.74,4.85c-0.15,0.18-0.44,0.37-0.88,0.46v14.63
			c0,1.94-0.44,3.01-3.72,3.32c-0.07-0.95-0.2-1.65-0.57-2.07c-0.22-0.24-0.46-0.44-0.86-0.62v0.7c0,0.15-0.86,0.68-2.29,0.68h-0.51
			v-4.05l-7.2,0.55l-0.24-0.7l1.89-0.15V8.23h-1.56l-0.18-0.62h8.38l1.32-1.72c0,0,1.5,1.17,2.4,1.98
			c-0.04,0.24-0.29,0.35-0.59,0.35h-1.43v7.81l0.64-0.95c0,0,1.01,1.17,1.61,1.98V4.85h-7.79l-0.2-0.62h7.77l1.3-1.5L92.74,4.85z
			 M81.19,8.23v2.53h2.73V8.23H81.19z M81.19,14.04h2.73v-2.66h-2.73V14.04z M83.92,17.19v-2.53h-2.73v2.75L83.92,17.19z
			 M86.71,20.01c0.7,0.02,1.5,0.07,1.76,0.07c0.37,0,0.48-0.15,0.48-0.46v-2.33c-0.09,0.15-0.26,0.26-0.51,0.29l-1.74,0.13V20.01z"
			/>
	</g>
</g>
</svg>
