<?xml version="1.0" encoding="utf-8"?>
<!-- Generator: Adobe Illustrator 26.3.1, SVG Export Plug-In . SVG Version: 6.00 Build 0)  -->
<svg version="1.1" id="图层_1" xmlns="http://www.w3.org/2000/svg" xmlns:xlink="http://www.w3.org/1999/xlink" x="0px" y="0px"
	 viewBox="0 0 500 450" style="enable-background:new 0 0 500 450;" xml:space="preserve">
<style type="text/css">
	.st0{filter:url(#a);}
	.st1{opacity:0.498;fill-rule:evenodd;clip-rule:evenodd;fill:#FFFFFF;}
	.st2{fill:none;stroke:#A22124;stroke-miterlimit:10;}
	
		.st3{fill-rule:evenodd;clip-rule:evenodd;fill:#FFFFFF;stroke:#A22124;stroke-width:15;stroke-linecap:round;stroke-linejoin:round;}
	
		.st4{fill-rule:evenodd;clip-rule:evenodd;fill:#FFFFFF;stroke:#A22124;stroke-width:20;stroke-linecap:round;stroke-linejoin:round;}
</style>
<filter  id="a">
	<feGaussianBlur  stdDeviation="6.923063"></feGaussianBlur>
</filter>
<g>
	<g class="st0">
		<path class="st1" d="M150.8,171.1c-64.8,1-121.9,37.1-134,88.3C2.9,318,53,374.2,128.6,384.9c0,0.1,0,0.2,0,0.4l-0.4,0l-58.9,54.8
			l121-56.9l-1.2,0l0.8-0.6l1.7-0.1l-1.3,0.6l1.7-0.1v-0.6h0c52.4-11.5,89.1-42.8,98.9-84.2c13.9-58.5-36.3-114.7-111.9-125.4
			C169.4,171.6,160,171,150.8,171.1L150.8,171.1z"/>
		<path class="st2" d="M150.8,171.1c-64.8,1-121.9,37.1-134,88.3C2.9,318,53,374.2,128.6,384.9c0,0.1,0,0.2,0,0.4l-0.4,0l-58.9,54.8
			l121-56.9l-1.2,0l0.8-0.6l1.7-0.1l-1.3,0.6l1.7-0.1v-0.6h0c52.4-11.5,89.1-42.8,98.9-84.2c13.9-58.5-36.3-114.7-111.9-125.4
			C169.4,171.6,160,171,150.8,171.1L150.8,171.1z"/>
	</g>
	<path class="st3" d="M167.4,150.3c-64.8,1-121.9,37.1-134,88.3c-13.9,58.5,36.2,114.7,111.8,125.4c0,0.1,0,0.2,0,0.4l-0.4,0
		l-58.9,54.8l121-56.9l-1.2,0l0.8-0.6l1.7-0.1l-1.3,0.6l1.7-0.1v-0.6h0c52.4-11.5,89.1-42.8,98.9-84.2
		c13.9-58.5-36.3-114.7-111.9-125.4C186.1,150.8,176.7,150.2,167.4,150.3L167.4,150.3z"/>
	<g class="st0">
		<path class="st1" d="M282.3,40c81.5,1.3,153.3,46.7,168.6,111.1c17.4,73.6-45.6,144.2-140.6,157.7c0,0.1,0,0.3,0,0.4l0.5,0
			l74.1,68.9l-152.2-71.5l1.5,0l-1-0.7l-2.2-0.1l1.7,0.8l-2.1-0.1v-0.7h0c-65.9-14.5-112-53.8-124.4-105.9
			C88.7,126.4,151.8,55.7,247,42.2C258.9,40.5,270.7,39.8,282.3,40L282.3,40z"/>
		<path class="st2" d="M282.3,40c81.5,1.3,153.3,46.7,168.6,111.1c17.4,73.6-45.6,144.2-140.6,157.7c0,0.1,0,0.3,0,0.4l0.5,0
			l74.1,68.9l-152.2-71.5l1.5,0l-1-0.7l-2.2-0.1l1.7,0.8l-2.1-0.1v-0.7h0c-65.9-14.5-112-53.8-124.4-105.9
			C88.7,126.4,151.8,55.7,247,42.2C258.9,40.5,270.7,39.8,282.3,40L282.3,40z"/>
	</g>
	<path class="st4" d="M304.1,20c81.5,1.3,153.3,46.7,168.6,111.1c17.4,73.6-45.6,144.2-140.6,157.7c0,0.1,0,0.3,0,0.4l0.5,0
		l74.1,68.9l-152.2-71.5l1.5,0l-1-0.7l-2.2-0.1l1.7,0.8l-2.1-0.1v-0.7h0c-65.9-14.5-112-53.8-124.4-105.9
		c-17.4-73.6,45.6-144.3,140.8-157.8C280.6,20.5,292.5,19.8,304.1,20L304.1,20z"/>
</g>
</svg>
