<?xml version="1.0" encoding="utf-8"?>
<!-- Generator: Adobe Illustrator 26.3.1, SVG Export Plug-In . SVG Version: 6.00 Build 0)  -->
<svg version="1.1" id="图层_1" xmlns="http://www.w3.org/2000/svg" xmlns:xlink="http://www.w3.org/1999/xlink" x="0px" y="0px"
	 viewBox="0 0 500 47.5" style="enable-background:new 0 0 500 47.5;" xml:space="preserve">
<g>
	<path d="M22.92,10.17c-0.29,0.59-0.78,0.78-1.96,0.93c-0.69,4.61-1.81,9.36-3.53,13.96c8.92,9.36,5.54,17.05,0.1,13.23
		c-0.78-2.06-1.86-4.26-3.18-6.47C11.3,37.32,7.09,42.32,1.11,46.19l-0.54-0.44c4.7-5.24,8.04-12.1,10.34-19.35
		c-2.74-4.02-5.88-7.94-8.62-11.12l0.59-0.34c3.82,1.86,7.01,3.82,9.6,5.78c0.83-3.63,1.47-7.25,1.86-10.78H1.7L1.26,8.56H13.9
		l3.23-3.48L22.92,10.17z M37.52,21.54c0.49-2.69,0.98-6.66,1.18-9.55h-9.41c-0.29,0.69-0.59,1.32-0.93,1.96l8.62,1.76
		c-0.2,0.64-0.73,1.13-1.96,1.13l-0.15,1.86c0.93,10,4.41,16.61,12.59,20.04l-0.05,0.64c-3.38,0.88-5.34,3.43-5.83,7.74
		c-4.75-4.16-6.47-13.13-7.15-23.13c-1.18,9.46-4.41,17.74-18.28,23.37l-0.44-0.69c11.56-9.01,12.2-19.55,12.4-32.14
		c-2.25,4.46-5.05,8.13-8.48,11.02l-0.54-0.34c2.69-6.32,4.9-15.68,5.44-24.5l9.31,2.06c-0.15,0.64-0.73,1.13-1.86,1.18
		c-0.64,2.35-1.32,4.61-2.16,6.66h8.38l3.48-3.48l5.88,5.68c-0.39,0.44-0.88,0.59-1.91,0.64c-1.86,2.55-5.1,6.17-7.74,8.38
		L37.52,21.54z"/>
	<path d="M70.25,35.55c3.63,3.43,8.97,4.46,19.99,4.46c5.19,0,9.6-0.1,14.85-0.44v0.59c-2.74,0.69-4.31,3.23-4.65,6.17H87.89
		c-10.48,0-14.6-2.74-18.32-8.82c-0.69-1.13-1.27-0.98-1.91,0c-0.93,1.71-3.33,5.44-5,8.48c0.05,0.54-0.2,0.93-0.64,1.18l-4.56-7.25
		c1.91-0.88,4.31-2.2,6.42-3.28V20.17h-5.49L58.1,18.8h5l3.09-4.12l6.57,5.24c-0.39,0.49-1.13,0.88-2.55,1.13v14.45L70.25,35.55z
		 M60.45,1.94c15.97,2.89,10.48,14.94,4.31,10.39c-0.69-3.53-2.74-7.4-4.7-10.14L60.45,1.94z M72.41,27.08
		c1.57-0.88,1.81-1.42,1.81-2.5V5.18l4.02,0.88c1.57-1.86,3.18-3.92,4.12-5.24l7.25,4.41c-0.2,0.44-0.73,0.69-1.96,0.44l-0.2,0.1
		l4.12,1.52h3.53l2.79-3.18l5.98,4.56c-0.29,0.39-0.93,0.83-1.96,1.03V26c0,4.21-0.83,6.52-7.01,7.06c-0.05-2.01-0.2-3.58-0.64-4.51
		c-0.44-0.88-1.03-1.57-2.65-1.91V26c0,0,2.5,0.15,3.19,0.15c0.64,0,0.78-0.29,0.78-0.83V8.66h-4.07v28.76
		c0,0.44-1.86,1.86-5.05,1.86h-1.13V6.55c-1.47,0.49-3.23,1.03-4.95,1.52v16.9c1.42-0.49,2.89-0.98,4.36-1.47l0.15,0.44
		c-1.18,1.57-3.63,4.66-6.71,7.89c-0.54,1.42-1.47,2.3-2.3,2.74L72.41,27.08z"/>
	<path d="M143.41,25.31c4.02,5.93,11.76,9.9,19.21,11.46l-0.1,0.59c-2.6,0.64-4.65,2.94-5.44,6.37c-7.45-3.58-11.91-9.41-14.6-18.23
		v19.4c0,0.69-3.14,2.45-5.88,2.45h-1.37V32.37c-4.7,5.34-11.27,9.6-19.35,12.59l-0.39-0.54c7.25-4.7,12.94-12.15,15.92-19.11
		h-14.85l-0.39-1.37h19.06V10.81h-16.66l-0.39-1.37h17.05V0.86l9.06,0.88c-0.1,0.69-0.44,1.18-1.81,1.37v6.32h7.4l3.82-4.75
		c0,0,4.26,3.19,6.86,5.34c-0.1,0.54-0.69,0.78-1.42,0.78h-16.66v13.13h8.82l3.92-4.85c0,0,4.36,3.23,7.01,5.44
		c-0.15,0.54-0.69,0.78-1.42,0.78H143.41z M123.86,11.45c15.14,3.97,8.08,15.48,2.2,10.09c-0.1-3.48-1.32-7.06-2.6-9.9L123.86,11.45
		z M144.09,22.72c1.18-2.79,2.6-7.4,3.63-11.51l8.67,3.38c-0.25,0.64-0.93,1.03-2.06,0.93c-2.89,3.09-6.42,5.78-9.75,7.55
		L144.09,22.72z"/>
	<path d="M195.15,0.86c0,0,3.72,3.09,5.93,5.15c-0.15,0.54-0.69,0.78-1.42,0.78h-15.78l7.5,1.67c-0.15,0.54-0.64,0.98-1.57,1.08
		c-2.55,2.5-6.52,5.29-10,7.1c3.43-0.1,8.33-0.34,13.47-0.59c-0.73-2.06-1.81-3.97-3.04-5.44l0.44-0.29
		c15.29,3.48,9.46,15.53,3.63,10.68c-0.05-1.13-0.2-2.3-0.54-3.43c-2.3,0.88-5.24,2.01-8.62,3.18l6.81,0.54
		c-0.05,0.64-0.34,1.08-1.57,1.27v5.44h1.08l3.18-4.61c0,0,3.63,3.14,5.68,5.19c-0.15,0.54-0.69,0.78-1.37,0.78h-8.57v6.81
		c3.33-0.44,6.86-0.88,10.39-1.37l0.1,0.54c-4.41,2.4-11.37,5.54-22.2,9.65c-0.34,0.64-0.88,1.08-1.52,1.23L173.94,38
		c2.06-0.15,5.44-0.49,9.6-0.98v-7.64h-8.53l-0.39-1.37h8.92v-6.66c-1.37,0.44-2.84,0.93-4.31,1.42c-0.39,0.54-0.83,0.93-1.32,1.18
		l-3.09-7.5c0,0,1.22-0.2,1.76-0.49c2.11-1.37,5-6.37,5.88-9.16h-7.74l-0.39-1.37h17.54L195.15,0.86z M208.09,34.48
		c0,0.49-2.79,1.71-5.19,1.71h-1.18V4.78l8.13,0.73c-0.1,0.69-0.44,1.18-1.76,1.37V34.48z M219.94,2.04
		c-0.05,0.73-0.54,1.22-1.76,1.42v36.35c0,4.56-1.03,7.06-8.48,7.69c-0.2-2.16-0.49-3.72-1.32-4.75c-0.88-1.03-1.96-1.76-4.65-2.25
		v-0.64c0,0,5.54,0.34,6.71,0.34c0.78,0,1.03-0.29,1.03-0.88V1.26L219.94,2.04z"/>
	<path d="M251.65,8.02c-0.1,5.05-0.1,10.14-0.1,15.34v2.11c0,5,0,10.09,0.1,15.09l5,0.49v1.67h-18.42v-1.67l4.95-0.49
		c0.1-4.9,0.1-9.95,0.1-15.04v-2.16c0-5.14,0-10.29-0.1-15.34h-6.76l-2.45,8.57h-2.89l0.2-10.49h32.34l0.2,10.49h-2.84l-2.5-8.57
		H251.65z"/>
	<path d="M306.62,8.17c-0.1,5-0.1,10.09-0.1,15.19v2.16c0,5,0,10.04,0.1,15.09l4.31,0.44v1.67h-16.95v-1.67l4.12-0.44
		c0.15-4.85,0.15-9.95,0.15-15.58h-13.18c0,5.54,0,10.63,0.15,15.63l4.07,0.39v1.67h-16.95v-1.67l4.36-0.44
		c0.05-4.95,0.05-10,0.05-15.09v-2.16c0-5.1,0-10.14-0.05-15.14l-4.36-0.44V6.11h16.95v1.67l-4.07,0.39
		c-0.15,4.9-0.15,9.95-0.15,14.99h13.18c0-5,0-10.04-0.15-14.99l-4.12-0.39V6.11h16.95v1.67L306.62,8.17z"/>
	<path d="M361.6,8.17c-0.15,5.05-0.15,10.09-0.15,15.19v2.16c0,5.1,0,10.19,0.15,15.09l4.36,0.44v1.67h-17.2v-1.67l4.31-0.44
		c0.15-5,0.05-9.95,0.15-13.92l0.2-15.78l-11.71,31.8h-2.6l-12.05-31.55c0.1,5.1,0.2,11.42,0.2,14.55v14.6l5.44,0.74v1.67h-13.23
		v-1.67l5.39-0.69l0.2-31.95l-5.19-0.64V6.11h13.52l9.99,26.02l9.7-26.02h12.94v1.67L361.6,8.17z"/>
	<path d="M415.21,17.43l-3.38,0.49l-8.67,24.89h-3.33c-3.82-10.58-5.58-15.53-6.71-19.4l-6.91,19.4h-3.33l-8.97-25.09l-2.65-0.29
		v-1.47h14.45v1.47l-3.82,0.34l5.49,17.88l5.78-17.83l-3.82-0.39v-1.47h12.79v1.47l-3.77,0.44l5.98,17.49l5.19-17.44l-4.41-0.49
		v-1.47h10.09V17.43z"/>
	<path d="M436.96,41.19v1.52h-14.31v-1.52l3.23-0.29c0.05-2.89,0.1-7.1,0.1-9.85v-3.92c0-3.14-0.05-4.95-0.15-7.45l-3.68-0.39v-1.18
		l11.22-2.94l0.69,0.49l-0.2,7.84v7.55c0,2.74,0.05,7.01,0.1,9.85L436.96,41.19z M425.55,6.3c0-2.35,1.91-4.02,4.21-4.02
		c2.35,0,4.26,1.67,4.26,4.02c0,2.3-1.91,3.97-4.26,3.97C427.46,10.27,425.55,8.61,425.55,6.3z"/>
	<path d="M476.6,41.19v1.52h-10.68l-6.96-14.4l-2.21,2.01v0.34c0,2.89,0.05,7.4,0.1,10.24l3.09,0.29v1.52h-14.45v-1.52l3.28-0.29
		c0.05-2.84,0.1-7.3,0.1-9.85V5.96l-3.58-0.34V4.34l10.97-2.11l0.69,0.44l-0.2,7.89v17.69l10.58-10.24l-4.95-0.59v-1.47h12.79v1.47
		l-4.8,0.49l-5.88,5.39l8.92,17.49L476.6,41.19z"/>
	<path d="M498.26,41.19v1.52h-14.31v-1.52l3.23-0.29c0.05-2.89,0.1-7.1,0.1-9.85v-3.92c0-3.14-0.05-4.95-0.15-7.45l-3.67-0.39v-1.18
		l11.22-2.94l0.69,0.49l-0.2,7.84v7.55c0,2.74,0.05,7.01,0.1,9.85L498.26,41.19z M486.85,6.3c0-2.35,1.91-4.02,4.21-4.02
		c2.35,0,4.26,1.67,4.26,4.02c0,2.3-1.91,3.97-4.26,3.97C488.76,10.27,486.85,8.61,486.85,6.3z"/>
</g>
</svg>
