<?xml version="1.0" encoding="utf-8"?>
<!-- Generator: Adobe Illustrator 26.3.1, SVG Export Plug-In . SVG Version: 6.00 Build 0)  -->
<svg version="1.1" xmlns="http://www.w3.org/2000/svg" xmlns:xlink="http://www.w3.org/1999/xlink" x="0px" y="0px"
	 viewBox="0 0 163.97 25.84" style="enable-background:new 0 0 163.97 25.84;" xml:space="preserve">
<style type="text/css">
	.st0{fill:#E3E9F6;}
	.st1{fill:#315BA8;}
</style>
<g id="背景层">
	<rect x="-0.2" y="0.02" class="st0" width="164.17" height="25.79"/>
</g>
<g id="侧边柱层_00000083810154933547548470000009584482828619831743_">
	<rect x="-0.2" y="0.02" class="st1" width="6" height="25.79"/>
	<rect x="157.97" y="0.02" class="st1" width="6" height="25.79"/>
</g>
<g id="字层">
	<g>
		<path d="M77.98,11.91c4.99,1.63,2.62,5.48,0.55,3.7c-0.04-0.77-0.26-1.58-0.55-2.33v9.04c0,0.18-0.92,0.88-2.38,0.88h-0.55v-8.27
			c-0.92,0.79-1.94,1.47-2.99,2.05l-0.18-0.18c2.44-2.55,4.33-6.03,5.1-9h-4.36l-0.2-0.62h4.42l1.58-1.54l2.62,2.51
			c-0.2,0.22-0.44,0.29-0.99,0.35c-0.53,1.12-1.23,2.27-2.09,3.39V11.91z M74.61,2.38c6.31,1.41,2.73,5.87,0.37,3.48
			c0.09-1.23-0.2-2.46-0.55-3.39L74.61,2.38z M92.68,20.01c0.64,0.29,0.75,0.59,0.75,1.08c0,1.03-0.95,1.63-3.59,1.63h-1.47
			c-1.96,0-2.29-0.51-2.29-2.18v-1.91c-1.25,1.98-3.48,3.48-7.46,4.6l-0.18-0.31c6.98-3.32,6.38-8.03,6.38-16.37l3.72,0.33
			c-0.07,0.33-0.31,0.55-0.79,0.62c-0.04,2.42-0.02,4.53-0.22,6.38l1.32,0.11V4.89h-4.97v10.58c0,0.2-0.86,0.68-2.27,0.68h-0.48v-13
			l2.99,1.12h4.64l1.36-1.56l2.51,1.96c-0.15,0.2-0.4,0.37-0.9,0.46v10.1c0,0.15-0.92,0.68-2.38,0.68h-0.51v-1.39
			c-0.04,0.02-0.11,0.04-0.18,0.04v5.24c0,0.26,0.07,0.35,0.46,0.35h1.01h0.84c0.22-0.02,0.31-0.07,0.44-0.29
			c0.2-0.37,0.55-1.52,0.95-2.82h0.24L92.68,20.01z"/>
	</g>
</g>
</svg>
