<?xml version="1.0" encoding="utf-8"?>
<!-- Generator: Adobe Illustrator 26.3.1, SVG Export Plug-In . SVG Version: 6.00 Build 0)  -->
<svg version="1.1" id="图层_1" xmlns="http://www.w3.org/2000/svg" xmlns:xlink="http://www.w3.org/1999/xlink" x="0px" y="0px"
	 viewBox="0 0 276 47" style="enable-background:new 0 0 276 47;" xml:space="preserve">
<g>
	<path d="M18.51,32.13c-1.44,2.11-4.32,5.95-8.11,10.18c-0.38,1.39-1.2,2.4-1.92,2.93l-4.85-7.06c2.35-1.39,2.74-1.92,2.74-3.07
		V15.33H1.18l-0.43-1.34h6.48l2.74-2.93l4.9,4.66c-0.29,0.29-0.82,0.67-1.97,0.82v17.86c1.73-0.82,3.6-1.73,5.42-2.64L18.51,32.13z
		 M3.25,1.26c15.36,1.2,10.42,12.77,4.22,8.83C6.7,7.07,4.64,3.76,2.91,1.5L3.25,1.26z M40.64,8.13c0,0,3.65,3.31,5.62,5.42
		c-0.14,0.53-0.67,0.77-1.34,0.77h-7.54v24.05c0,4.7-1.1,7.3-9.12,8.02c-0.19-2.3-0.53-3.94-1.54-5.04c-1.01-1.1-2.21-1.87-5.28-2.4
		v-0.62c0,0,6.48,0.38,7.82,0.38c0.82,0,1.1-0.29,1.1-0.91V14.32H16.45l-0.38-1.34h14.31V0.78l8.74,0.82
		c-0.05,0.72-0.53,1.2-1.73,1.34v10.03h0.1L40.64,8.13z M18.99,18.11c16.37,4.56,8.79,16.9,3.79,11.38
		c-0.38-3.12-1.58-7.78-4.13-11.04L18.99,18.11z"/>
	<path d="M76.06,32.56c-1.58,2.16-4.7,6.29-8.88,10.75c-0.43,1.1-1.06,1.87-1.68,2.3l-4.85-7.06c2.35-1.39,2.74-1.92,2.74-3.07
		V15.33h-5.71l-0.43-1.34h6.24l3.02-2.93l5.38,4.46c-0.24,0.34-0.77,0.72-1.97,0.86v18.63c1.92-0.86,3.94-1.82,5.95-2.83
		L76.06,32.56z M61.28,1.31c15.12,0.96,10.18,12.43,4.08,8.54c-0.77-2.98-2.74-6.14-4.42-8.3L61.28,1.31z M103.09,16.67
		c-2.78,1.73-4.46,3.94-4.8,6.62c-4.66-3.84-7.97-10.27-9.94-16.9c-2.02,3.6-4.8,7.39-8.26,10.8l4.9,0.43
		c-0.05,0.67-0.48,1.1-1.58,1.3v9.5c2.45-2.4,5.23-5.81,7.39-9.12l7.15,6.1c-0.48,0.53-1.1,0.67-2.45,0.29
		c-3.94,2.21-8.35,3.6-12.1,4.32v7.25c0,0.91,0.38,1.2,2.06,1.2h5.04c1.58,0,3.02,0,3.84-0.05c0.77-0.05,1.15-0.19,1.58-0.77
		c0.67-0.96,1.58-3.36,2.74-6.58h0.48l0.19,6.86c1.87,0.72,2.35,1.49,2.35,2.74c0,2.88-2.54,4.08-11.9,4.08h-5.52
		c-5.81,0-7.54-1.01-7.54-5.76V20.27c-1.92,1.58-3.98,3.02-6.19,4.22l-0.34-0.34c5.71-6.19,10.46-16.75,12-23.33l8.98,3.26
		c-0.19,0.67-0.82,1.06-2.21,1.1c2.78,5.52,8.88,8.98,14.16,10.8L103.09,16.67z"/>
	<path d="M159.97,18.06c-0.34,0.58-0.77,0.72-1.92,0.86c-1.2,5.47-3.12,10.8-6.34,15.41c2.59,2.54,5.71,4.42,9.07,6l-0.1,0.53
		c-2.74,0.38-4.94,2.26-6.1,5.33c-2.64-2.21-4.8-4.61-6.43-7.54c-3.07,3.07-7.01,5.71-12,7.73l-0.38-0.53
		c4.46-3.07,7.82-7.15,10.32-11.71c-1.49-4.18-2.4-9.41-2.93-16.32h-0.77v2.5c0,8.59-0.67,19.25-11.33,26.07l-0.43-0.34
		c5.18-7.44,5.62-16.85,5.62-25.73v-2.88c-0.14,0.05-0.29,0.05-0.43,0.05h-12.87v6.58h2.54l2.88-3.12l5.76,4.46
		c-0.34,0.38-0.96,0.82-1.92,1.01v16.18c-0.05,0.48-2.93,2.06-5.18,2.06h-1.06V25.41h-3.02c-0.19,8.5-2.16,15.79-8.16,20.83
		l-0.48-0.38c2.26-6.14,2.64-13.25,2.64-21.51V2.13l7.73,0.72c-0.1,0.67-0.48,1.2-1.73,1.39v11.91h2.02V1.07l7.68,0.62
		c-0.1,0.62-0.38,1.06-1.54,1.25v12.43l1.92-3.31c0,0,1.82,2.02,3.22,3.7V4.43l5.52,1.92c3.94-1.49,8.79-3.7,13.15-5.66l5.47,6.62
		c-0.53,0.48-1.2,0.53-2.21,0.14c-4.7,0.67-11.19,0.86-15.79,0.67v8.35h8.59l3.26-3.41L159.97,18.06z M143.94,17.82
		c0.77,4.99,2.21,8.88,4.18,12.05c1.58-3.84,2.64-7.92,3.26-12.05H143.94z"/>
	<path d="M183.92,35.44c3.7,3.31,8.88,4.32,19.25,4.27c5.23,0,9.6-0.1,14.83-0.38v0.53c-2.59,0.67-4.03,3.02-4.32,5.71h-12.62
		c-10.27,0-14.4-2.64-18.15-8.59c-0.67-1.06-1.2-0.96-1.78,0c-0.91,1.73-3.22,5.33-4.75,8.26c0.1,0.48-0.14,0.87-0.53,1.15
		l-4.32-6.72c1.87-0.96,4.27-2.4,6.29-3.55V19.93h-5.47l-0.29-1.39h4.99l3.03-3.98l6.34,5.09c-0.38,0.48-1.1,0.86-2.5,1.1V35.44z
		 M174.46,1.88c15.65,3.26,10.37,15.07,4.32,10.61c-0.67-3.6-2.74-7.54-4.7-10.37L174.46,1.88z M186.37,7.02h11.67V0.59l8.5,0.82
		c-0.1,0.67-0.43,1.15-1.78,1.34v4.27h3.26l3.46-4.27c0,0,3.89,2.88,6.24,4.85c-0.14,0.53-0.67,0.77-1.39,0.77h-11.57v4.08h2.88
		l2.88-3.17l6.1,4.56c-0.29,0.38-0.91,0.82-1.92,1.01v6.91c0,0.38-3.26,1.63-5.42,1.63h-1.15v-1.54h-3.36v2.83
		c16.85,1.68,13.2,13.87,6.77,10.47c-1.39-3.26-4.27-6.91-6.77-9.55v11.28c0,0.62-2.93,2.11-5.47,2.11h-1.25v-9.46
		c-3.07,2.74-6.87,5.04-11.14,6.87l-0.38-0.53c4.37-3.55,7.63-8.88,9.51-14.02h-1.3v0.72c0,0.58-2.93,1.97-5.57,1.97h-0.91V9.85
		l6.82,2.59h2.98V8.37h-11.28L186.37,7.02z M198.03,20.51v-6.72h-3.31v6.72H198.03z M204.75,13.79v6.72h3.36v-6.72H204.75z"/>
	<path d="M272.96,39.04c1.68,0.62,2.11,1.29,2.11,2.4c0,2.54-2.35,3.6-11.38,3.6h-5.71c-5.42,0-6.67-0.91-6.67-4.9v-3.36
		c-2.78,4.13-8.69,7.44-21.51,9.79l-0.29-0.67c18-5.52,17.81-12.58,18-21.99l8.26,0.67c-0.14,0.67-0.58,1.1-1.63,1.25
		c-0.1,1.25-0.19,2.45-0.34,3.6l4.9,0.38c-0.05,0.67-0.53,1.06-1.49,1.2v7.73c0,0.67,0.19,0.87,1.82,0.87h5.33
		c1.78,0,3.41-0.05,4.18-0.1c0.72,0,1.06-0.14,1.39-0.62c0.58-0.82,1.34-2.74,2.35-5.52h0.53L272.96,39.04z M236.33,19.02
		c-0.77,0.19-1.68,0.29-2.5,0.29h-1.06V3.09l7.92,0.67c-0.1,0.67-0.43,1.15-1.78,1.34v12.91c0,0.19-0.77,0.58-1.87,0.86l6.24,2.35
		h16.13l2.93-3.12l5.95,4.46c-0.29,0.34-0.82,0.72-1.73,0.91v11.42c-0.05,0.34-3.36,1.49-5.52,1.49h-1.15V22.57h-16.99v12.58
		c0,0.62-2.93,2.06-5.67,2.06h-0.91V19.02z M248,18.49c0,0.43-2.74,1.39-5.18,1.39h-1.1V0.59l8.06,0.72
		c-0.1,0.62-0.43,1.1-1.78,1.34V18.49z M269.17,2.99c0,0,3.98,3.26,6.34,5.42c-0.14,0.53-0.67,0.77-1.39,0.77h-16.37
		c-2.5,4.61-5.57,8.21-9.26,10.8l-0.53-0.34c2.21-4.8,4.18-12.1,4.94-19.01l9.07,2.4c-0.19,0.62-0.82,1.06-1.92,1.06
		c-0.53,1.3-1.06,2.54-1.63,3.74h7.2L269.17,2.99z M258.13,10.91c15.55-1.44,12.29,10.9,5.71,7.92c-1.1-2.83-3.74-5.9-6-7.63
		L258.13,10.91z"/>
</g>
</svg>
