<?xml version="1.0" encoding="UTF-8" ?><!DOCTYPE svg PUBLIC "-//W3C//DTD SVG 1.1 Basic//EN" "http://www.w3.org/Graphics/SVG/1.1/DTD/svg11-basic.dtd">
<svg xmlns="http://www.w3.org/2000/svg" xmlns:xlink="http://www.w3.org/1999/xlink" width="117" height="60" viewBox="0 0 117 60" baseProfile="basic" version="1.1">
<defs>
<radialGradient id="radial0" gradientUnits="userSpaceOnUse" cx="66.706" cy="22.942" fx="66.706" fy="22.942" r="59.341" gradientTransform="matrix(0.599428,0,0,0.599428,9.177187,6.311719)">
<stop offset="0" style="stop-color:rgb(0%,40%,80%);stop-opacity:1;"/>
<stop offset="1" style="stop-color:rgb(0%,20%,60%);stop-opacity:1;"/>
</radialGradient>
<linearGradient id="linear0" gradientUnits="userSpaceOnUse" x1="85.76" y1="12.79" x2="85.76" y2="44.682" gradientTransform="matrix(0.599428,0,0,0.599428,9.177187,6.311719)">
<stop offset="0" style="stop-color:rgb(100%,100%,100%);stop-opacity:0.501961;"/>
<stop offset="1" style="stop-color:rgb(5.098039%,21.176471%,57.254902%);stop-opacity:0.501961;"/>
</linearGradient>
<linearGradient id="linear1" gradientUnits="userSpaceOnUse" x1="-61.091" y1="64.264" x2="36.681" y2="64.264" gradientTransform="matrix(0.599428,0,0,0.599428,9.177187,6.311719)">
<stop offset="0" style="stop-color:rgb(0%,40%,80%);stop-opacity:1;"/>
<stop offset="1" style="stop-color:rgb(0%,20%,60%);stop-opacity:1;"/>
</linearGradient>
<linearGradient id="linear2" gradientUnits="userSpaceOnUse" x1="-61.091" y1="64.264" x2="36.681" y2="64.264" gradientTransform="matrix(0.46875,0,0,0.46875,-1.96875,0)">
<stop offset="0" style="stop-color:rgb(0%,40%,80%);stop-opacity:1;"/>
<stop offset="1" style="stop-color:rgb(0%,20%,60%);stop-opacity:1;"/>
</linearGradient>
<linearGradient id="linear3" gradientUnits="userSpaceOnUse" x1="100.293" y1="62.243" x2="182.824" y2="62.243" gradientTransform="matrix(0.46875,0,0,0.46875,34.614375,0.946875)">
<stop offset="0" style="stop-color:rgb(0%,40%,80%);stop-opacity:1;"/>
<stop offset="1" style="stop-color:rgb(0%,20%,60%);stop-opacity:1;"/>
</linearGradient>
<linearGradient id="linear4" gradientUnits="userSpaceOnUse" x1="100.293" y1="62.243" x2="182.824" y2="62.243" gradientTransform="matrix(0.46875,0,0,0.46875,28.5,0)">
<stop offset="0" style="stop-color:rgb(0%,40%,80%);stop-opacity:1;"/>
<stop offset="1" style="stop-color:rgb(0%,20%,60%);stop-opacity:1;"/>
</linearGradient>
</defs>
<g id="surface1">
<path style=" stroke:none;fill-rule:nonzero;fill:rgb(0%,0%,0%);fill-opacity:0.211765;" d="M 24.707031 54.910156 L 24.160156 59.171875 L 22.324219 59.171875 C 17.410156 59.171875 14.207031 58.441406 12.714844 56.980469 C 11.242188 55.523438 10.785156 52.613281 11.34375 48.25 L 12.246094 41.171875 C 12.628906 38.191406 12.359375 36.128906 11.4375 34.984375 C 10.519531 33.839844 8.660156 33.269531 5.855469 33.269531 L 4.050781 33.269531 L 4.59375 29.035156 L 6.402344 29.035156 C 9.230469 29.035156 11.238281 28.472656 12.425781 27.347656 C 13.640625 26.203125 14.433594 24.160156 14.808594 21.222656 L 15.707031 14.109375 C 16.265625 9.746094 17.464844 6.84375 19.308594 5.402344 C 21.167969 3.941406 24.5625 3.210938 29.476563 3.210938 L 31.3125 3.210938 L 30.773438 7.445313 L 28.757813 7.445313 C 25.972656 7.445313 24.101563 7.878906 23.140625 8.746094 C 22.183594 9.613281 21.523438 11.441406 21.167969 14.226563 L 20.230469 21.570313 C 19.835938 24.667969 19.09375 26.921875 18.007813 28.324219 C 16.9375 29.722656 15.289063 30.671875 13.054688 31.164063 C 15.175781 31.699219 16.59375 32.664063 17.300781 34.066406 C 18.015625 35.46875 18.167969 37.707031 17.777344 40.789063 L 16.839844 48.132813 C 16.480469 50.917969 16.675781 52.742188 17.414063 53.613281 C 18.15625 54.484375 19.914063 54.914063 22.699219 54.914063 L 24.714844 54.914063 M 75.636719 54.914063 L 77.714844 54.914063 C 80.480469 54.914063 82.332031 54.492188 83.269531 53.644531 C 84.226563 52.796875 84.886719 50.964844 85.246094 48.136719 L 86.183594 40.796875 C 86.578125 37.714844 87.308594 35.476563 88.378906 34.074219 C 89.449219 32.671875 91.113281 31.707031 93.371094 31.171875 C 91.242188 30.679688 89.828125 29.734375 89.113281 28.332031 C 88.40625 26.929688 88.246094 24.679688 88.644531 21.582031 L 89.582031 14.238281 C 89.945313 11.433594 89.753906 9.609375 89.011719 8.761719 C 88.292969 7.894531 86.550781 7.457031 83.789063 7.457031 L 81.703125 7.457031 L 82.242188 3.226563 L 84.109375 3.226563 C 89.023438 3.226563 92.207031 3.957031 93.660156 5.417969 C 95.132813 6.863281 95.589844 9.765625 95.035156 14.125 L 94.125 21.230469 C 93.75 24.175781 94.019531 26.21875 94.941406 27.363281 C 95.863281 28.488281 97.722656 29.050781 100.527344 29.050781 L 102.359375 29.050781 L 101.820313 33.28125 L 99.984375 33.28125 C 97.179688 33.28125 95.175781 33.855469 93.960938 35 C 92.75 36.140625 91.953125 38.207031 91.574219 41.1875 L 90.667969 48.265625 C 90.113281 52.628906 88.910156 55.539063 87.066406 57 C 85.242188 58.464844 81.871094 59.195313 76.953125 59.195313 L 75.089844 59.195313 L 75.632813 54.929688 "/>
<path style=" stroke:none;fill-rule:nonzero;fill:rgb(0%,0%,0%);fill-opacity:0.211765;" d="M 39.941406 54.910156 L 39.394531 59.171875 L 37.558594 59.171875 C 32.644531 59.171875 29.441406 58.441406 27.949219 56.980469 C 26.476563 55.523438 26.019531 52.613281 26.578125 48.25 L 27.480469 41.171875 C 27.863281 38.191406 27.59375 36.128906 26.671875 34.984375 C 25.753906 33.839844 23.894531 33.269531 21.089844 33.269531 L 19.285156 33.269531 L 19.828125 29.035156 L 21.636719 29.035156 C 24.464844 29.035156 26.472656 28.472656 27.660156 27.347656 C 28.875 26.203125 29.667969 24.160156 30.042969 21.222656 L 30.941406 14.109375 C 31.5 9.746094 32.699219 6.84375 34.542969 5.402344 C 36.402344 3.941406 39.796875 3.210938 44.710938 3.210938 L 46.546875 3.210938 L 46.007813 7.445313 L 43.992188 7.445313 C 41.207031 7.445313 39.335938 7.878906 38.375 8.746094 C 37.417969 9.613281 36.757813 11.441406 36.402344 14.226563 L 35.464844 21.570313 C 35.070313 24.667969 34.328125 26.921875 33.242188 28.324219 C 32.171875 29.722656 30.523438 30.671875 28.289063 31.164063 C 30.410156 31.699219 31.828125 32.664063 32.535156 34.066406 C 33.25 35.46875 33.402344 37.707031 33.011719 40.789063 L 32.074219 48.132813 C 31.714844 50.917969 31.910156 52.742188 32.648438 53.613281 C 33.390625 54.484375 35.148438 54.914063 37.933594 54.914063 L 39.949219 54.914063 M 90.871094 54.914063 L 92.949219 54.914063 C 95.714844 54.914063 97.566406 54.492188 98.503906 53.644531 C 99.460938 52.796875 100.121094 50.964844 100.480469 48.136719 L 101.417969 40.796875 C 101.8125 37.714844 102.542969 35.476563 103.613281 34.074219 C 104.683594 32.671875 106.347656 31.707031 108.605469 31.171875 C 106.476563 30.679688 105.0625 29.734375 104.347656 28.332031 C 103.640625 26.929688 103.480469 24.679688 103.878906 21.582031 L 104.816406 14.238281 C 105.179688 11.433594 104.988281 9.609375 104.246094 8.761719 C 103.527344 7.894531 101.785156 7.457031 99.023438 7.457031 L 96.9375 7.457031 L 97.476563 3.226563 L 99.34375 3.226563 C 104.257813 3.226563 107.441406 3.957031 108.894531 5.417969 C 110.367188 6.863281 110.824219 9.765625 110.269531 14.125 L 109.359375 21.230469 C 108.984375 24.175781 109.253906 26.21875 110.175781 27.363281 C 111.097656 28.488281 112.957031 29.050781 115.761719 29.050781 L 117.59375 29.050781 L 117.054688 33.28125 L 115.21875 33.28125 C 112.414063 33.28125 110.410156 33.855469 109.195313 35 C 107.984375 36.140625 107.1875 38.207031 106.808594 41.1875 L 105.902344 48.265625 C 105.347656 52.628906 104.144531 55.539063 102.300781 57 C 100.476563 58.464844 97.105469 59.195313 92.1875 59.195313 L 90.324219 59.195313 L 90.867188 54.929688 "/>
<path style=" stroke:none;fill-rule:nonzero;fill:rgb(0%,40%,80%);fill-opacity:0.388235;" d="M 22.683594 52.6875 L 22.140625 56.953125 L 20.304688 56.953125 C 15.386719 56.953125 12.183594 56.222656 10.691406 54.761719 C 9.222656 53.300781 8.765625 50.390625 9.324219 46.027344 L 10.230469 38.949219 C 10.609375 35.96875 10.339844 33.90625 9.421875 32.761719 C 8.503906 31.613281 6.644531 31.039063 3.839844 31.039063 L 2.035156 31.039063 L 2.578125 26.800781 L 4.386719 26.800781 C 7.210938 26.800781 9.214844 26.238281 10.40625 25.113281 C 11.621094 23.964844 12.414063 21.925781 12.789063 18.984375 L 13.6875 11.882813 C 14.242188 7.519531 15.441406 4.617188 17.28125 3.179688 C 19.148438 1.71875 22.539063 0.988281 27.453125 0.988281 L 29.289063 0.988281 L 28.75 5.222656 L 26.734375 5.222656 C 23.949219 5.222656 22.078125 5.65625 21.117188 6.523438 C 20.164063 7.390625 19.5 9.21875 19.148438 12.003906 L 18.210938 19.347656 C 17.816406 22.445313 17.078125 24.695313 15.988281 26.097656 C 14.921875 27.5 13.269531 28.445313 11.035156 28.941406 C 13.160156 29.476563 14.574219 30.441406 15.28125 31.84375 C 15.996094 33.246094 16.148438 35.484375 15.753906 38.566406 L 14.816406 45.910156 C 14.460938 48.695313 14.652344 50.523438 15.394531 51.390625 C 16.136719 52.261719 17.894531 52.691406 20.675781 52.691406 L 22.691406 52.691406 M 73.617188 52.691406 L 75.691406 52.691406 C 78.457031 52.691406 80.308594 52.269531 81.246094 51.421875 C 82.199219 50.574219 82.863281 48.742188 83.222656 45.914063 L 84.164063 38.574219 C 84.558594 35.496094 85.289063 33.253906 86.359375 31.851563 C 87.425781 30.449219 89.089844 29.484375 91.351563 28.949219 C 89.222656 28.457031 87.808594 27.511719 87.09375 26.109375 C 86.386719 24.707031 86.230469 22.457031 86.625 19.359375 L 87.5625 12.019531 C 87.917969 9.214844 87.730469 7.394531 86.992188 6.539063 C 86.273438 5.671875 84.535156 5.238281 81.769531 5.238281 L 79.699219 5.238281 L 80.242188 1.003906 L 82.105469 1.003906 C 87.023438 1.003906 90.207031 1.734375 91.660156 3.199219 C 93.136719 4.640625 93.59375 7.542969 93.035156 11.90625 L 92.125 19.011719 C 91.75 21.957031 92.019531 24 92.941406 25.144531 C 93.863281 26.269531 95.726563 26.835938 98.53125 26.832031 L 100.363281 26.832031 L 99.824219 31.070313 L 97.988281 31.070313 C 95.183594 31.070313 93.175781 31.640625 91.964844 32.789063 C 90.75 33.933594 89.953125 36 89.574219 38.976563 L 88.671875 46.054688 C 88.113281 50.417969 86.914063 53.332031 85.066406 54.792969 C 83.238281 56.253906 79.867188 56.988281 74.957031 56.988281 L 73.089844 56.988281 L 73.632813 52.726563 "/>
<path style=" stroke:none;fill-rule:nonzero;fill:rgb(0%,40%,80%);fill-opacity:0.388235;" d="M 37.917969 52.6875 L 37.375 56.953125 L 35.539063 56.953125 C 30.621094 56.953125 27.417969 56.222656 25.925781 54.761719 C 24.457031 53.300781 24 50.390625 24.558594 46.027344 L 25.464844 38.949219 C 25.84375 35.96875 25.574219 33.90625 24.65625 32.761719 C 23.738281 31.613281 21.878906 31.039063 19.074219 31.039063 L 17.269531 31.039063 L 17.8125 26.800781 L 19.621094 26.800781 C 22.445313 26.800781 24.449219 26.238281 25.640625 25.113281 C 26.855469 23.964844 27.648438 21.925781 28.023438 18.984375 L 28.921875 11.882813 C 29.476563 7.519531 30.675781 4.617188 32.515625 3.179688 C 34.382813 1.71875 37.773438 0.988281 42.6875 0.988281 L 44.523438 0.988281 L 43.984375 5.222656 L 41.96875 5.222656 C 39.183594 5.222656 37.3125 5.65625 36.351563 6.523438 C 35.398438 7.390625 34.734375 9.21875 34.382813 12.003906 L 33.445313 19.347656 C 33.050781 22.445313 32.3125 24.695313 31.222656 26.097656 C 30.15625 27.5 28.503906 28.445313 26.269531 28.941406 C 28.394531 29.476563 29.808594 30.441406 30.515625 31.84375 C 31.230469 33.246094 31.382813 35.484375 30.988281 38.566406 L 30.050781 45.910156 C 29.695313 48.695313 29.886719 50.523438 30.628906 51.390625 C 31.371094 52.261719 33.128906 52.691406 35.910156 52.691406 L 37.925781 52.691406 M 88.851563 52.691406 L 90.925781 52.691406 C 93.691406 52.691406 95.542969 52.269531 96.480469 51.421875 C 97.433594 50.574219 98.097656 48.742188 98.457031 45.914063 L 99.398438 38.574219 C 99.792969 35.496094 100.523438 33.253906 101.59375 31.851563 C 102.660156 30.449219 104.324219 29.484375 106.585938 28.949219 C 104.457031 28.457031 103.042969 27.511719 102.328125 26.109375 C 101.621094 24.707031 101.464844 22.457031 101.859375 19.359375 L 102.796875 12.019531 C 103.152344 9.214844 102.964844 7.394531 102.226563 6.539063 C 101.507813 5.671875 99.769531 5.238281 97.003906 5.238281 L 94.933594 5.238281 L 95.476563 1.003906 L 97.339844 1.003906 C 102.257813 1.003906 105.441406 1.734375 106.894531 3.199219 C 108.371094 4.640625 108.828125 7.542969 108.269531 11.90625 L 107.359375 19.011719 C 106.984375 21.957031 107.253906 24 108.175781 25.144531 C 109.097656 26.269531 110.960938 26.835938 113.765625 26.832031 L 115.597656 26.832031 L 115.058594 31.070313 L 113.222656 31.070313 C 110.417969 31.070313 108.410156 31.640625 107.199219 32.789063 C 105.984375 33.933594 105.1875 36 104.808594 38.976563 L 103.90625 46.054688 C 103.347656 50.417969 102.148438 53.332031 100.300781 54.792969 C 98.472656 56.253906 95.101563 56.988281 90.191406 56.988281 L 88.324219 56.988281 L 88.867188 52.726563 "/>
<path style=" stroke:none;fill-rule:nonzero;fill:rgb(60%,60%,60%);fill-opacity:0.360784;" d="M 85.902344 30.792969 C 85.902344 43.574219 75.542969 53.933594 62.761719 53.933594 C 49.984375 53.933594 39.621094 43.574219 39.621094 30.792969 C 39.621094 18.015625 49.984375 7.652344 62.761719 7.652344 C 75.542969 7.652344 85.902344 18.015625 85.902344 30.792969 Z "/>
<path style=" stroke:none;fill-rule:nonzero;fill:rgb(0%,40%,80%);fill-opacity:1;" d="M 83.707031 29.453125 C 83.707031 42.230469 73.34375 52.59375 60.566406 52.59375 C 47.785156 52.59375 37.425781 42.230469 37.425781 29.453125 C 37.425781 16.671875 47.785156 6.3125 60.566406 6.3125 C 73.34375 6.3125 83.707031 16.671875 83.707031 29.453125 Z "/>
<path style=" stroke:none;fill-rule:nonzero;fill:url(#radial0);" d="M 82.027344 29.117188 C 82.027344 40.972656 72.417969 50.582031 60.5625 50.582031 C 48.710938 50.582031 39.101563 40.972656 39.101563 29.117188 C 39.101563 17.265625 48.710938 7.65625 60.5625 7.65625 C 72.417969 7.65625 82.027344 17.265625 82.027344 29.117188 Z "/>
<path style=" stroke:none;fill-rule:nonzero;fill:rgb(100%,100%,100%);fill-opacity:0.360784;" d="M 41.449219 31.214844 C 41.449219 18.625 50.441406 8.347656 61.757813 7.6875 C 61.363281 7.667969 60.964844 7.652344 60.566406 7.652344 C 48.710938 7.652344 39.101563 17.261719 39.101563 29.117188 C 39.101563 34.59375 41.15625 39.585938 44.527344 43.378906 C 42.574219 39.832031 41.449219 35.667969 41.449219 31.214844 Z "/>
<path style=" stroke:none;fill-rule:nonzero;fill:url(#linear0);" d="M 60.894531 28.0625 C 68.160156 28.0625 74.851563 27.007813 80.164063 25.238281 C 78.46875 15.238281 70.339844 7.652344 60.566406 7.652344 C 50.859375 7.652344 42.777344 15.128906 41.003906 25.027344 C 46.410156 26.925781 53.339844 28.0625 60.894531 28.0625 Z "/>
<path style=" stroke:none;fill-rule:nonzero;fill:rgb(100%,100%,100%);fill-opacity:1;" d="M 63.941406 40.542969 C 63.941406 43.234375 63.941406 44.796875 66.582031 44.796875 L 66.582031 45.679688 L 54.546875 45.679688 L 54.546875 44.796875 C 57.238281 44.796875 57.238281 43.234375 57.238281 40.542969 L 57.238281 28.601563 C 57.238281 26.011719 57.238281 24.25 54.546875 24.25 L 54.546875 23.367188 L 63.941406 23.367188 Z M 60.566406 12.554688 C 62.570313 12.554688 64.234375 14.21875 64.234375 16.226563 C 64.234375 18.230469 62.570313 19.894531 60.566406 19.894531 C 58.558594 19.894531 56.894531 18.230469 56.894531 16.226563 C 56.894531 14.21875 58.558594 12.554688 60.566406 12.554688 Z "/>
<path style=" stroke:none;fill-rule:nonzero;fill:url(#linear1);" d="M 39.089844 53.84375 L 38.546875 58.105469 L 36.710938 58.105469 C 31.796875 58.105469 28.589844 57.378906 27.097656 55.917969 C 25.628906 54.460938 25.171875 51.542969 25.726563 47.183594 L 26.632813 40.105469 C 27.011719 37.125 26.742188 35.0625 25.824219 33.917969 C 24.898438 32.777344 23.039063 32.203125 20.234375 32.203125 L 18.425781 32.203125 L 18.96875 27.964844 L 20.773438 27.964844 C 23.597656 27.964844 25.597656 27.402344 26.792969 26.277344 C 28.003906 25.136719 28.796875 23.089844 29.175781 20.148438 L 30.082031 13.042969 C 30.640625 8.675781 31.839844 5.777344 33.679688 4.335938 C 35.546875 2.875 38.933594 2.144531 43.851563 2.144531 L 45.683594 2.144531 L 45.140625 6.378906 L 43.132813 6.378906 C 40.347656 6.378906 38.476563 6.8125 37.515625 7.679688 C 36.554688 8.550781 35.894531 10.375 35.539063 13.160156 L 34.601563 20.5 C 34.207031 23.597656 33.472656 25.851563 32.378906 27.25 C 31.3125 28.65625 29.667969 29.601563 27.429688 30.09375 C 29.550781 30.628906 30.96875 31.59375 31.679688 32.996094 C 32.382813 34.398438 32.542969 36.636719 32.148438 39.71875 L 31.210938 47.0625 C 30.855469 49.847656 31.042969 51.675781 31.789063 52.542969 C 32.523438 53.414063 34.285156 53.84375 37.066406 53.84375 L 39.078125 53.84375 "/>
<path style=" stroke:none;fill-rule:nonzero;fill:url(#linear2);" d="M 23.855469 53.84375 L 23.3125 58.105469 L 21.476563 58.105469 C 16.5625 58.105469 13.355469 57.378906 11.863281 55.917969 C 10.394531 54.460938 9.9375 51.542969 10.492188 47.183594 L 11.398438 40.105469 C 11.777344 37.125 11.507813 35.0625 10.589844 33.917969 C 9.664063 32.777344 7.804688 32.203125 5 32.203125 L 3.191406 32.203125 L 3.734375 27.964844 L 5.539063 27.964844 C 8.363281 27.964844 10.363281 27.402344 11.558594 26.277344 C 12.769531 25.136719 13.5625 23.089844 13.941406 20.148438 L 14.847656 13.042969 C 15.40625 8.675781 16.605469 5.777344 18.445313 4.335938 C 20.3125 2.875 23.699219 2.144531 28.617188 2.144531 L 30.449219 2.144531 L 29.90625 6.378906 L 27.898438 6.378906 C 25.113281 6.378906 23.242188 6.8125 22.28125 7.679688 C 21.320313 8.550781 20.660156 10.375 20.304688 13.160156 L 19.367188 20.5 C 18.972656 23.597656 18.238281 25.851563 17.144531 27.25 C 16.078125 28.65625 14.433594 29.601563 12.195313 30.09375 C 14.316406 30.628906 15.734375 31.59375 16.445313 32.996094 C 17.148438 34.398438 17.308594 36.636719 16.914063 39.71875 L 15.976563 47.0625 C 15.621094 49.847656 15.808594 51.675781 16.554688 52.542969 C 17.289063 53.414063 19.050781 53.84375 21.832031 53.84375 L 23.84375 53.84375 "/>
<path style=" stroke:none;fill-rule:nonzero;fill:url(#linear3);" d="M 74.75 53.84375 L 76.824219 53.84375 C 79.582031 53.84375 81.429688 53.417969 82.367188 52.570313 C 83.324219 51.722656 83.980469 49.882813 84.339844 47.0625 L 85.277344 39.71875 C 85.671875 36.636719 86.398438 34.398438 87.46875 32.996094 C 88.535156 31.59375 90.199219 30.628906 92.457031 30.09375 C 90.324219 29.601563 88.90625 28.652344 88.195313 27.25 C 87.484375 25.851563 87.332031 23.601563 87.726563 20.5 L 88.664063 13.15625 C 89.023438 10.351563 88.828125 8.527344 88.089844 7.675781 C 87.371094 6.804688 85.628906 6.375 82.863281 6.375 L 80.789063 6.375 L 81.328125 2.136719 L 83.195313 2.136719 C 88.109375 2.136719 91.289063 2.867188 92.746094 4.324219 C 94.214844 5.765625 94.671875 8.667969 94.117188 13.03125 L 93.207031 20.136719 C 92.832031 23.074219 93.101563 25.121094 94.023438 26.261719 C 94.945313 27.386719 96.808594 27.949219 99.613281 27.949219 L 101.445313 27.949219 L 100.90625 32.183594 L 99.066406 32.183594 C 96.265625 32.183594 94.253906 32.753906 93.039063 33.898438 C 91.828125 35.042969 91.03125 37.105469 90.652344 40.085938 L 89.746094 47.164063 C 89.191406 51.523438 87.988281 54.441406 86.148438 55.898438 C 84.320313 57.355469 80.953125 58.085938 76.039063 58.085938 L 74.171875 58.085938 L 74.71875 53.820313 "/>
<path style=" stroke:none;fill-rule:nonzero;fill:url(#linear4);" d="M 89.984375 53.84375 L 92.058594 53.84375 C 94.816406 53.84375 96.664063 53.417969 97.601563 52.570313 C 98.558594 51.722656 99.214844 49.882813 99.574219 47.0625 L 100.511719 39.71875 C 100.90625 36.636719 101.632813 34.398438 102.703125 32.996094 C 103.769531 31.59375 105.433594 30.628906 107.691406 30.09375 C 105.558594 29.601563 104.140625 28.652344 103.429688 27.25 C 102.71875 25.851563 102.566406 23.601563 102.960938 20.5 L 103.898438 13.15625 C 104.257813 10.351563 104.0625 8.527344 103.324219 7.675781 C 102.605469 6.804688 100.863281 6.375 98.097656 6.375 L 96.023438 6.375 L 96.5625 2.136719 L 98.429688 2.136719 C 103.34375 2.136719 106.523438 2.867188 107.980469 4.324219 C 109.449219 5.765625 109.90625 8.667969 109.351563 13.03125 L 108.441406 20.136719 C 108.066406 23.074219 108.335938 25.121094 109.257813 26.261719 C 110.179688 27.386719 112.042969 27.949219 114.847656 27.949219 L 116.679688 27.949219 L 116.140625 32.183594 L 114.300781 32.183594 C 111.5 32.183594 109.488281 32.753906 108.273438 33.898438 C 107.0625 35.042969 106.265625 37.105469 105.886719 40.085938 L 104.980469 47.164063 C 104.425781 51.523438 103.222656 54.441406 101.382813 55.898438 C 99.554688 57.355469 96.1875 58.085938 91.273438 58.085938 L 89.40625 58.085938 L 89.953125 53.820313 "/>
</g>
</svg>
