<?xml version="1.0" encoding="utf-8"?>
<!-- Generator: Adobe Illustrator 26.3.1, SVG Export Plug-In . SVG Version: 6.00 Build 0)  -->
<svg version="1.1" id="图层_1" xmlns="http://www.w3.org/2000/svg" xmlns:xlink="http://www.w3.org/1999/xlink" x="0px" y="0px"
	 viewBox="0 0 26.43 25.84" style="enable-background:new 0 0 26.43 25.84;" xml:space="preserve">
<g>
	<path d="M7.48,11.96c6.13,2,3.21,6.72,0.67,4.54c-0.05-0.94-0.32-1.94-0.67-2.86v11.09c0,0.22-1.13,1.08-2.92,1.08H3.89V15.66
		c-1.13,0.97-2.38,1.81-3.67,2.51L0,17.95c3-3.13,5.32-7.4,6.26-11.04H0.92L0.67,6.16H6.1l1.94-1.89l3.21,3.08
		c-0.24,0.27-0.54,0.35-1.21,0.43c-0.65,1.38-1.51,2.78-2.56,4.16V11.96z M3.35,0.27C11.09,2,6.69,7.48,3.81,4.54
		c0.11-1.51-0.24-3.02-0.67-4.16L3.35,0.27z M25.51,21.9c0.78,0.35,0.92,0.73,0.92,1.32c0,1.27-1.16,2-4.4,2h-1.81
		c-2.4,0-2.81-0.62-2.81-2.67V20.2c-1.54,2.43-4.27,4.27-9.15,5.64l-0.22-0.38c8.56-4.08,7.83-9.85,7.83-20.08l4.56,0.4
		c-0.08,0.4-0.38,0.67-0.97,0.76c-0.05,2.97-0.03,5.56-0.27,7.83l1.62,0.14V3.35h-6.1v12.98c0,0.24-1.05,0.84-2.78,0.84h-0.59V1.22
		l3.67,1.38h5.7l1.67-1.92l3.08,2.4c-0.19,0.24-0.49,0.46-1.11,0.57v12.39c0,0.19-1.13,0.84-2.92,0.84h-0.62v-1.7
		c-0.05,0.03-0.13,0.05-0.22,0.05v6.42c0,0.32,0.08,0.43,0.57,0.43h1.24h1.03c0.27-0.03,0.38-0.08,0.54-0.35
		c0.24-0.46,0.67-1.86,1.16-3.46h0.3L25.51,21.9z"/>
</g>
</svg>
