<?xml version="1.0" encoding="utf-8"?>
<!-- Generator: Adobe Illustrator 26.3.1, SVG Export Plug-In . SVG Version: 6.00 Build 0)  -->
<svg version="1.1" id="图层_1" xmlns="http://www.w3.org/2000/svg" xmlns:xlink="http://www.w3.org/1999/xlink" x="0px" y="0px"
	 viewBox="0 0 164 25.8" style="enable-background:new 0 0 164 25.8;" xml:space="preserve">
<style type="text/css">
	.st0{fill:#DDECF2;}
	.st1{fill:#00A8E3;}
</style>
<g id="背景层">
	<rect x="-0.2" y="0" class="st0" width="164.2" height="25.8"/>
</g>
<g id="侧边柱层_00000083810154933547548470000009584482828619831743_">
	<rect x="-0.2" y="0" class="st1" width="6" height="25.8"/>
	<rect x="158" y="0" class="st1" width="6" height="25.8"/>
</g>
<g id="字层">
	<g>
		<path d="M81.8,16.1c-0.1,0.2-0.3,0.3-0.9,0.2c-0.8,0.4-2.1,1-3.4,1.5c1.5,1,3.3,1.4,4.9,1.6l0,0.2c-1.1,0.4-1.9,1.5-2.1,2.9
			c-3-1.5-4.8-3.6-5.7-8.2h-0.2V20c0,2-0.4,3.1-3.7,3.3c0-0.9-0.1-1.6-0.4-2c-0.3-0.4-0.6-0.7-1.6-0.9v-0.1
			c-0.5,0.4-0.9,0.8-1.5,1.2c0,0.3-0.2,0.6-0.5,0.7l-1.7-2.9c-0.8,1.5-1.9,2.9-3.7,4.1l-0.2-0.1c1.9-3.4,2-7.9,2-11.8v-7L67,5.6h4.9
			l-0.1,0c-0.2-1.1-1-2.3-1.7-3.1l0.1-0.1c4.9-0.4,5.1,2.3,3.7,3.2h4.2l1.5-2.1c0,0,1.7,1.4,2.7,2.3c-0.1,0.2-0.3,0.3-0.6,0.3h-8.2
			l1.7,0.2c0,0.3-0.2,0.5-0.8,0.6v1.3h1.7l1.3-1.3L80,8.8c-0.1,0.1-0.3,0.2-0.6,0.3v1.2l0.7-1.1c0,0,1.4,1.2,2.1,2
			c-0.1,0.2-0.3,0.4-0.6,0.4h-2.3v2.3c0,0.1-0.2,0.2-0.5,0.4L81.8,16.1z M71.4,14.3h-3.5l-0.2-0.6h3.7v-2.1h-4.7l-0.1-0.4v0.1
			c0,2.4-0.1,5.2-1.3,7.7c1.4-0.3,3.8-1.1,6.1-2L71.4,14.3L71.4,14.3z M66.6,6.2V11h4.8V8.9h-3.5l-0.2-0.6h3.7V6.2H66.6z M66.8,14.3
			c5.9,0.5,3,4.8,0.7,2.8c0-1-0.4-2.1-0.8-2.7L66.8,14.3z M71.4,17.9c-0.6,0.7-1.4,1.4-2.3,2.2c0.5,0,1.7,0.1,1.9,0.1
			s0.4-0.1,0.4-0.3L71.4,17.9L71.4,17.9z M74.5,8.9V11h1.8V8.9H74.5z M74.5,13.7h1.8v-2.1h-1.8V13.7z M74.8,14.3
			c0.5,1.2,1.2,2.2,2,2.9c0.6-0.8,1.1-1.8,1.6-2.6c-0.5,0.2-1,0.3-1.5,0.3h-0.6v-0.6H74.8z"/>
		<path d="M89.4,8.9c-0.1,0.2-0.3,0.4-0.7,0.4v13.1c0,0.2-1.3,0.9-2.5,0.9h-0.6V12.1c-0.7,0.7-1.4,1.3-2.2,1.9l-0.2-0.1
			c1.6-2.8,3.1-7.3,3.8-11.6l4.3,1.3c-0.1,0.3-0.4,0.5-0.9,0.5c-0.6,1.6-1.2,3.1-2,4.4L89.4,8.9z M98.3,8c1.3,3.8,3.7,6.8,6.4,8.3
			l-0.1,0.2c-1.1,0.2-2.1,1.2-2.6,2.7C99.7,16.7,98.6,13,97.9,8v9.9l1.1-1.7c0,0,1.5,1.4,2.3,2.3c-0.1,0.2-0.3,0.4-0.6,0.4h-2.8v3.5
			c0,0.3-1.4,1.1-2.6,1.1h-0.6v-4.6h-2.8l-0.2-0.6h3v-5.1c-1.4,2.5-3.3,4.6-5.8,6.3l-0.2-0.2c2.3-2.9,3.9-7.2,4.6-11.2h-3.8
			l-0.2-0.6h5.3V2.4l4,0.4c0,0.3-0.2,0.5-0.8,0.6v3.9h1.8l1.5-2.2c0,0,1.7,1.4,2.7,2.4c-0.1,0.2-0.3,0.3-0.6,0.3
			C103.4,8,98.3,8,98.3,8z"/>
	</g>
</g>
</svg>
